<svg width="380" height="361" viewBox="0 0 380 361" fill="none" xmlns="http://www.w3.org/2000/svg">
<path d="M223.804 280.633C240.571 280.633 254.163 267.934 254.163 252.269C254.163 236.603 240.571 223.904 223.804 223.904C207.037 223.904 193.445 236.603 193.445 252.269C193.445 267.934 207.037 280.633 223.804 280.633Z" stroke="#FBAD40" stroke-width="2" stroke-miterlimit="10"/>
<path d="M181.492 247.763C181.492 238.277 186.139 231.031 192.247 224.499C199.054 217.146 209.665 209.994 221.775 209.994C233.066 209.994 241.897 217.791 249.204 224.786C256.324 231.569 261.932 238.721 261.932 249.384C261.932 269.826 244.67 285.407 221.768 285.407C211.776 285.407 204.182 282.278 197.149 276.697C188.493 269.814 181.492 260.121 181.492 247.763Z" stroke="#FBA93F" stroke-width="2" stroke-miterlimit="10"/>
<path d="M169.469 243.264C169.469 231.294 176.064 223.24 183.764 215.106C191.883 206.527 204.792 196.134 219.738 196.134C233.602 196.134 243.414 208.298 252.495 216.783C261.575 225.268 269.694 232.745 269.694 246.549C269.694 271.772 248.772 290.231 219.731 290.231C206.922 290.231 198.266 286.345 189.41 278.968C179.062 270.389 169.469 258.995 169.469 243.264Z" stroke="#FBA43E" stroke-width="2" stroke-miterlimit="10"/>
<path d="M157.479 238.778C157.479 224.324 166.01 215.42 175.315 205.702C184.621 195.984 199.916 182.231 217.715 182.225C234.159 182.225 244.945 198.763 255.812 208.749C266.935 218.942 277.489 226.733 277.489 243.678C277.489 273.681 252.901 295.019 217.734 295.019C202.12 295.019 192.396 290.363 181.71 281.253C169.626 270.972 157.479 257.869 157.479 238.778Z" stroke="#FCA03E" stroke-width="2" stroke-miterlimit="10"/>
<path d="M145.492 234.26C145.492 217.321 155.934 207.56 166.864 196.278C177.481 185.215 195.043 168.333 215.665 168.333C234.682 168.333 246.448 189.239 259.064 200.727C272.179 212.616 285.219 220.75 285.219 240.818C285.219 275.596 256.972 299.818 215.665 299.818C197.21 299.818 186.455 294.386 173.946 283.517C160.181 271.56 145.492 256.749 145.492 234.26Z" stroke="#FC9B3D" stroke-width="2" stroke-miterlimit="10"/>
<path d="M133.502 229.761C133.502 210.363 145.874 199.725 158.415 186.873C170.325 174.571 190.172 154.441 213.636 154.441C235.226 154.441 247.986 179.715 262.35 192.699C277.489 206.296 292.952 214.724 292.952 237.951C292.952 277.516 261.038 304.617 213.599 304.617C192.314 304.617 180.498 298.416 166.178 285.782C150.739 272.147 133.502 255.622 133.502 229.761Z" stroke="#FC973C" stroke-width="2" stroke-miterlimit="10"/>
<path d="M121.535 225.255C121.535 203.355 135.843 191.91 149.989 177.462C163.167 163.927 185.325 140.544 211.624 140.544C235.788 140.544 249.502 170.185 265.659 184.664C282.778 199.982 300.777 208.742 300.777 235.092C300.777 279.431 265.178 309.41 211.624 309.41C187.517 309.41 174.658 302.445 158.539 288.054C141.289 272.736 121.535 254.496 121.535 225.255Z" stroke="#FC923B" stroke-width="2" stroke-miterlimit="10"/>
<path d="M109.525 220.756C109.525 196.353 125.763 184.089 141.514 168.057C155.96 153.284 180.429 126.659 209.588 126.659C236.331 126.659 251.02 160.668 268.951 176.642C288.093 193.65 308.534 202.723 308.534 232.232C308.534 281.346 269.294 314.203 209.582 314.203C182.652 314.203 168.731 306.469 150.763 290.313C131.846 273.33 109.525 253.37 109.525 220.756Z" stroke="#FD8E3A" stroke-width="2" stroke-miterlimit="10"/>
<path d="M97.5352 216.252C97.5352 189.377 115.703 176.261 133.065 158.653C148.772 142.641 175.533 112.769 207.528 112.769C236.844 112.769 252.495 151.145 272.211 168.615C293.358 187.324 316.272 196.717 316.272 229.367C316.272 283.267 273.373 319.003 207.528 319.003C177.744 319.009 162.755 310.549 143.008 292.591C122.36 273.963 97.5352 252.244 97.5352 216.252Z" stroke="#FD8A3A" stroke-width="2" stroke-miterlimit="10"/>
<path d="M85.543 211.752C85.543 182.386 105.647 168.439 124.614 149.241C141.589 131.996 170.68 98.8701 205.491 98.8701C237.386 98.8701 254.03 141.62 275.495 160.592C298.647 181.003 324.034 190.715 324.034 226.507C324.034 285.181 277.469 323.801 205.491 323.801C172.903 323.801 156.84 314.578 135.268 294.855C112.916 274.55 85.543 251.116 85.543 211.752Z" stroke="#FD8539" stroke-width="2" stroke-miterlimit="10"/>
<path d="M73.5586 207.247C73.5586 175.404 95.5922 160.618 116.164 139.837C134.407 121.353 165.809 84.9795 203.462 84.9795C237.924 84.9795 255.542 132.097 278.781 152.558C303.937 174.672 331.798 184.702 331.798 223.635C331.798 287.09 281.573 328.595 203.456 328.595C168.045 328.595 150.926 318.583 127.537 297.114C103.474 275.139 73.5586 249.991 73.5586 207.247Z" stroke="#FE8138" stroke-width="2" stroke-miterlimit="10"/>
<path d="M61.5801 202.748C61.5801 168.414 85.5435 152.79 107.727 130.433C127.225 110.716 160.937 71.082 201.426 71.082C238.467 71.082 257.06 122.573 282.041 144.536C309.208 168.358 339.536 178.708 339.536 220.782C339.536 289.018 285.645 333.413 201.395 333.413C163.161 333.413 144.987 322.657 119.774 299.405C94.0559 275.727 61.5801 248.864 61.5801 202.748Z" stroke="#FE7C37" stroke-width="2" stroke-miterlimit="10"/>
<path d="M49.582 198.243C49.582 161.431 75.4753 144.968 99.2638 121.022C120.042 100.072 156.059 57.1973 199.389 57.1973C239.004 57.1973 258.577 113.05 285.357 136.509C314.522 162.032 347.323 172.701 347.323 217.916C347.323 290.932 289.772 338.194 199.383 338.194C158.326 338.194 139.097 326.662 112.067 301.657C84.5872 276.322 49.582 247.745 49.582 198.243Z" stroke="#FE7836" stroke-width="2" stroke-miterlimit="10"/>
<path d="M37.5918 193.725C37.5918 154.423 65.4148 137.128 90.8147 111.598C112.861 89.4097 151.189 43.2871 197.354 43.2871C239.548 43.2871 260.095 103.501 288.642 128.461C319.813 155.712 355.112 166.7 355.112 215.056C355.112 292.847 293.907 342.993 197.373 342.993C153.487 342.993 133.208 330.691 104.355 303.922C75.1389 276.903 37.5918 246.618 37.5918 193.725Z" stroke="#FE7335" stroke-width="2" stroke-miterlimit="10"/>
<path d="M25.6016 189.245C25.6016 147.458 55.3607 129.318 82.3656 102.212C105.679 78.7845 146.318 29.4145 195.325 29.4082C240.086 29.4082 261.607 93.996 291.928 120.452C325.135 149.386 362.851 160.693 362.851 212.19C362.851 294.787 297.968 347.786 195.313 347.786C148.604 347.786 127.27 334.721 96.5925 306.187C65.6967 277.491 25.6016 245.491 25.6016 189.245Z" stroke="#FF6F35" stroke-width="2" stroke-miterlimit="10"/>
<path d="M13.6172 184.74C13.6172 140.47 45.3061 121.497 73.9161 92.8015C98.4978 68.1415 141.447 15.5176 193.29 15.5176C240.63 15.5176 263.125 84.473 295.214 112.431C330.394 143.091 370.614 154.692 370.614 209.331C370.614 296.683 302.071 352.586 193.284 352.586C143.745 352.586 121.356 338.751 88.8612 308.459C56.2542 278.08 13.6172 244.366 13.6172 184.74Z" stroke="#FF6A34" stroke-width="2" stroke-miterlimit="10"/>
<path d="M191.253 1.62598C241.166 1.62598 264.642 74.949 298.504 104.402C335.683 136.74 378.376 148.673 378.376 206.471C378.376 298.597 306.167 357.385 191.246 357.385C138.879 357.385 115.44 342.78 81.1221 310.724C46.8039 278.668 1.625 243.239 1.625 180.241C1.625 133.486 35.2437 113.675 65.465 83.3964C91.3145 57.4974 136.568 1.62598 191.253 1.62598Z" stroke="#FF6633" stroke-width="2" stroke-miterlimit="10"/>
<path d="M59.7387 148.51H50.7891V195.771H59.7387V148.51Z" fill="#0055DC"/>
<path d="M293.284 148.51H284.334V195.771H293.284V148.51Z" fill="#0055DC"/>
<path d="M72.0098 204.199V213.166H272.073V204.199H72.0098Z" fill="white" stroke="#0055DC" stroke-width="2.47" stroke-miterlimit="10"/>
<path d="M284.327 140.131H59.7383V204.181H284.327V140.131Z" fill="#C5EBF5" stroke="#0055DC" stroke-width="2.47" stroke-miterlimit="10"/>
<path d="M274.629 195.152V149.161H69.4441V195.152H274.629Z" fill="white"/>
<path d="M86.0924 162.15H81.1211V167.131H86.0924V162.15Z" fill="#0055DC"/>
<path d="M86.0924 177.144H81.1211V182.124H86.0924V177.144Z" fill="#0055DC"/>
<path d="M92.9069 169.24H87.9355V174.221H92.9069V169.24Z" fill="#0055DC"/>
<path d="M98.9596 162.15H93.9883V167.131H98.9596V162.15Z" fill="#0055DC"/>
<path d="M98.9596 177.144H93.9883V182.124H98.9596V177.144Z" fill="#0055DC"/>
<path d="M105.385 169.24H100.414V174.221H105.385V169.24Z" fill="#0055DC"/>
<path d="M112.993 162.15H108.021V167.131H112.993V162.15Z" fill="#0055DC"/>
<path d="M112.993 177.144H108.021V182.124H112.993V177.144Z" fill="#0055DC"/>
<path d="M119.424 169.24H114.453V174.221H119.424V169.24Z" fill="#0055DC"/>
<path d="M127.245 162.15H122.273V167.131H127.245V162.15Z" fill="#0055DC"/>
<path d="M127.245 177.144H122.273V182.124H127.245V177.144Z" fill="#0055DC"/>
<path d="M133.296 169.24H128.324V174.221H133.296V169.24Z" fill="#0055DC"/>
<path d="M140.104 162.15H135.133V167.131H140.104V162.15Z" fill="#0055DC"/>
<path d="M140.104 177.144H135.133V182.124H140.104V177.144Z" fill="#0055DC"/>
<path d="M145.78 169.24H140.809V174.221H145.78V169.24Z" fill="#0055DC"/>
<path d="M152.969 162.15H147.998V167.131H152.969V162.15Z" fill="#0055DC"/>
<path d="M152.969 177.144H147.998V182.124H152.969V177.144Z" fill="#0055DC"/>
<path d="M158.264 169.24H153.293V174.221H158.264V169.24Z" fill="#0055DC"/>
<path d="M258.334 178.338C261.742 178.338 264.505 175.57 264.505 172.156C264.505 168.742 261.742 165.974 258.334 165.974C254.927 165.974 252.164 168.742 252.164 172.156C252.164 175.57 254.927 178.338 258.334 178.338Z" fill="#0055DC"/>
<path d="M240.585 172.156H175.221" stroke="#0055DC" stroke-width="2.47" stroke-miterlimit="10"/>
<path d="M59.7387 221.563H50.7891V268.825H59.7387V221.563Z" fill="#0055DC"/>
<path d="M293.284 221.563H284.334V268.825H293.284V221.563Z" fill="#0055DC"/>
<path d="M284.327 213.191H59.7383V277.241H284.327V213.191Z" fill="#C5EBF5" stroke="#0055DC" stroke-width="2.47" stroke-miterlimit="10"/>
<path d="M274.629 268.212V222.221H69.4441V268.212H274.629Z" fill="white"/>
<path d="M72.0156 277.26V286.227H272.079V277.26H72.0156Z" fill="white" stroke="#0055DC" stroke-width="2.47" stroke-miterlimit="10"/>
<path d="M86.0924 235.205H81.1211V240.186H86.0924V235.205Z" fill="#0055DC"/>
<path d="M86.0924 250.197H81.1211V255.178H86.0924V250.197Z" fill="#0055DC"/>
<path d="M92.9069 242.301H87.9355V247.282H92.9069V242.301Z" fill="#0055DC"/>
<path d="M98.9596 235.205H93.9883V240.186H98.9596V235.205Z" fill="#0055DC"/>
<path d="M98.9596 250.197H93.9883V255.178H98.9596V250.197Z" fill="#0055DC"/>
<path d="M105.385 242.301H100.414V247.282H105.385V242.301Z" fill="#0055DC"/>
<path d="M112.993 235.205H108.021V240.186H112.993V235.205Z" fill="#0055DC"/>
<path d="M112.993 250.197H108.021V255.178H112.993V250.197Z" fill="#0055DC"/>
<path d="M119.424 242.301H114.453V247.282H119.424V242.301Z" fill="#0055DC"/>
<path d="M127.245 235.205H122.273V240.186H127.245V235.205Z" fill="#0055DC"/>
<path d="M127.245 250.197H122.273V255.178H127.245V250.197Z" fill="#0055DC"/>
<path d="M133.296 242.301H128.324V247.282H133.296V242.301Z" fill="#0055DC"/>
<path d="M140.104 235.205H135.133V240.186H140.104V235.205Z" fill="#0055DC"/>
<path d="M140.104 250.197H135.133V255.178H140.104V250.197Z" fill="#0055DC"/>
<path d="M145.78 242.301H140.809V247.282H145.78V242.301Z" fill="#0055DC"/>
<path d="M152.969 235.205H147.998V240.186H152.969V235.205Z" fill="#0055DC"/>
<path d="M152.969 250.197H147.998V255.178H152.969V250.197Z" fill="#0055DC"/>
<path d="M158.264 242.301H153.293V247.282H158.264V242.301Z" fill="#0055DC"/>
<path d="M258.334 251.399C261.742 251.399 264.505 248.631 264.505 245.216C264.505 241.802 261.742 239.034 258.334 239.034C254.927 239.034 252.164 241.802 252.164 245.216C252.164 248.631 254.927 251.399 258.334 251.399Z" fill="#0055DC"/>
<path d="M240.585 245.217H175.221" stroke="#0055DC" stroke-width="2.47" stroke-miterlimit="10"/>
<path d="M59.7387 294.58H50.7891V341.841H59.7387V294.58Z" fill="#0055DC"/>
<path d="M293.284 294.58H284.334V341.841H293.284V294.58Z" fill="#0055DC"/>
<path d="M72.0098 350.282V359.249H272.073V350.282H72.0098Z" fill="white" stroke="#0055DC" stroke-width="2.47" stroke-miterlimit="10"/>
<path d="M284.327 286.208H59.7383V350.258H284.327V286.208Z" fill="#C5EBF5" stroke="#0055DC" stroke-width="2.47" stroke-miterlimit="10"/>
<path d="M274.635 341.222V295.23H69.45V341.222H274.635Z" fill="white"/>
<path d="M86.0924 308.221H81.1211V313.202H86.0924V308.221Z" fill="#0055DC"/>
<path d="M86.0924 323.214H81.1211V328.195H86.0924V323.214Z" fill="#0055DC"/>
<path d="M92.9069 315.311H87.9355V320.291H92.9069V315.311Z" fill="#0055DC"/>
<path d="M98.9596 308.221H93.9883V313.202H98.9596V308.221Z" fill="#0055DC"/>
<path d="M98.9596 323.214H93.9883V328.195H98.9596V323.214Z" fill="#0055DC"/>
<path d="M105.385 315.311H100.414V320.291H105.385V315.311Z" fill="#0055DC"/>
<path d="M112.993 308.221H108.021V313.202H112.993V308.221Z" fill="#0055DC"/>
<path d="M112.993 323.214H108.021V328.195H112.993V323.214Z" fill="#0055DC"/>
<path d="M119.424 315.311H114.453V320.291H119.424V315.311Z" fill="#0055DC"/>
<path d="M127.245 308.221H122.273V313.202H127.245V308.221Z" fill="#0055DC"/>
<path d="M127.245 323.214H122.273V328.195H127.245V323.214Z" fill="#0055DC"/>
<path d="M133.296 315.311H128.324V320.291H133.296V315.311Z" fill="#0055DC"/>
<path d="M140.104 308.221H135.133V313.202H140.104V308.221Z" fill="#0055DC"/>
<path d="M140.104 323.214H135.133V328.195H140.104V323.214Z" fill="#0055DC"/>
<path d="M145.78 315.311H140.809V320.291H145.78V315.311Z" fill="#0055DC"/>
<path d="M152.969 308.221H147.998V313.202H152.969V308.221Z" fill="#0055DC"/>
<path d="M152.969 323.214H147.998V328.195H152.969V323.214Z" fill="#0055DC"/>
<path d="M158.264 315.311H153.293V320.291H158.264V315.311Z" fill="#0055DC"/>
<path d="M258.334 324.408C261.742 324.408 264.505 321.64 264.505 318.226C264.505 314.812 261.742 312.044 258.334 312.044C254.927 312.044 252.164 314.812 252.164 318.226C252.164 321.64 254.927 324.408 258.334 324.408Z" fill="#0055DC"/>
<path d="M240.585 318.227H175.221" stroke="#0055DC" stroke-width="2.47" stroke-miterlimit="10"/>
</svg>
