<svg width="584" height="358" viewBox="0 0 584 358" fill="none" xmlns="http://www.w3.org/2000/svg">
<path d="M448.21 171.25H527V214.98H518.16V231.6L503.46 214.98H448.21V171.25Z" fill="#0055DC" stroke="#0055DC" stroke-width="1.28" stroke-linecap="round" stroke-linejoin="round"/>
<path d="M259.96 281.74C319.629 281.74 368 233.53 368 174.06C368 114.59 319.629 66.3799 259.96 66.3799C200.291 66.3799 151.92 114.59 151.92 174.06C151.92 233.53 200.291 281.74 259.96 281.74Z" stroke="#FBAD40" stroke-miterlimit="10"/>
<path d="M260 59.79C291.91 59.79 319.56 75.12 340.42 96.01C361.28 116.9 375.25 143.01 375.25 174.66C375.25 205.34 360.71 231.07 341.04 251.66C320.04 273.66 292.87 289.29 260.04 289.29C196.39 289.29 144.79 238.09 144.79 174.65C144.79 140.99 162.22 112.22 185.38 91.23C205.76 72.64 230.09 59.79 260 59.79Z" stroke="#FBA63F" stroke-miterlimit="10"/>
<path d="M260 53.2C293.65 53.2 321.66 71.53 343.78 93.43C366.14 115.53 382.46 141.43 382.46 175.26C382.46 207.79 364.75 233.04 343.95 254.92C321.63 278.39 294.95 296.85 259.95 296.85C192.32 296.85 137.49 242.67 137.49 175.26C137.49 139.83 158.44 110.95 182.64 88.68C204.47 68.55 227.88 53.2 260 53.2Z" stroke="#FC9F3D" stroke-miterlimit="10"/>
<path d="M260 46.6201C295.39 46.6201 323.76 67.9401 347.14 90.8501C371.14 114.29 389.67 139.75 389.67 175.85C389.67 210.22 368.8 235.01 346.85 258.16C323.17 283.1 297.1 304.4 260 304.4C188.39 304.4 130.33 247.24 130.33 175.86C130.33 138.66 154.79 109.68 180.05 86.1301C203.17 64.4501 225.67 46.6201 260 46.6201Z" stroke="#FC983C" stroke-miterlimit="10"/>
<path d="M260 40C297.12 40 325.86 64.32 350.5 88.24C376 113 396.84 138.11 396.84 176.46C396.84 212.67 372.84 236.99 349.71 261.46C324.75 287.82 299.23 312 260 312C184.4 312 123.12 251.86 123.12 176.51C123.12 137.51 151.12 108.45 177.4 83.62C201.87 60.35 223.46 40 260 40Z" stroke="#FD913B" stroke-miterlimit="10"/>
<path d="M260 33.4399C298.86 33.4399 328 60.7599 353.86 85.6999C381.03 111.8 404.09 136.47 404.09 177.06C404.09 215.11 376.89 238.97 352.65 264.66C326.33 292.53 301.36 319.5 260 319.5C180.42 319.5 115.91 256.38 115.91 177.06C115.91 136.32 147.4 107.13 174.76 81.0599C200.57 56.2499 221.25 33.4399 260 33.4399Z" stroke="#FD8A3A" stroke-miterlimit="10"/>
<path d="M260 26.8501C300.6 26.8501 330.07 57.1701 357.22 83.1201C385.99 110.55 411.31 134.84 411.31 177.66C411.31 217.56 380.93 240.94 355.55 267.91C327.95 297.25 303.55 327.05 260 327.05C176.44 327.05 108.7 260.95 108.7 177.66C108.7 135.15 143.7 105.85 172.11 78.4601C199.28 52.1501 219.05 26.8501 260 26.8501Z" stroke="#FD8238" stroke-miterlimit="10"/>
<path d="M260 20.26C302.33 20.26 332.17 53.58 360.58 80.54C390.96 109.31 418.52 133.2 418.52 178.26C418.52 220 384.98 242.91 358.45 271.16C329.49 302 305.63 334.6 260 334.6C172.45 334.6 101.48 265.52 101.48 178.26C101.48 133.98 140.01 104.57 169.48 75.91C198 48.05 216.84 20.26 260 20.26Z" stroke="#FE7B37" stroke-miterlimit="10"/>
<path d="M260 13.6799C304 13.6799 334.23 49.9999 363.9 77.9999C395.9 108.1 425.69 131.6 425.69 178.9C425.69 222.48 388.98 244.9 361.32 274.45C331.07 306.72 307.77 342.2 259.96 342.2C168.43 342.2 94.23 270.13 94.23 178.9C94.23 132.9 136.28 103.34 166.78 73.3999C196.68 43.9999 214.63 13.6799 260 13.6799Z" stroke="#FE7436" stroke-miterlimit="10"/>
<path d="M260 7.09009C305.81 7.09009 336.37 46.4001 367.3 75.3801C400.88 106.82 432.94 129.92 432.94 179.46C432.94 224.88 393.07 246.86 364.26 277.65C332.65 311.4 309.9 349.71 260 349.71C164.49 349.71 87.0601 274.71 87.0601 179.46C87.0001 131.65 132.58 102 164.14 70.8001C195.39 39.8501 212.42 7.09009 260 7.09009Z" stroke="#FF6D34" stroke-miterlimit="10"/>
<path d="M440.11 180.06C440.11 227.33 397.11 248.84 367.11 280.9C334.23 316.11 312 357.26 260 357.26C160.51 357.26 79.8501 279.26 79.8501 180.06C79.8501 130.48 128.93 100.74 161.53 68.25C194.13 35.76 210.21 0.5 260 0.5C307.55 0.5 338.47 42.81 370.66 72.8C405.8 105.57 440.11 128.28 440.11 180.06Z" stroke="#FF6633" stroke-miterlimit="10"/>
<path d="M395.73 71.6799H131.48V275.63H395.73V71.6799Z" fill="white" stroke="#0055DC" stroke-width="1.5" stroke-miterlimit="10"/>
<path d="M395.73 71.6799H131.48V90.3699H395.73V71.6799Z" fill="#0055DC" stroke="#0055DC" stroke-width="1.28" stroke-miterlimit="10"/>
<path d="M140.08 84.26C141.881 84.26 143.34 82.8094 143.34 81.02C143.34 79.2306 141.881 77.78 140.08 77.78C138.28 77.78 136.82 79.2306 136.82 81.02C136.82 82.8094 138.28 84.26 140.08 84.26Z" fill="white"/>
<path d="M150.6 84.26C152.401 84.26 153.86 82.8094 153.86 81.02C153.86 79.2306 152.401 77.78 150.6 77.78C148.8 77.78 147.34 79.2306 147.34 81.02C147.34 82.8094 148.8 84.26 150.6 84.26Z" fill="white"/>
<path d="M161.13 84.26C162.931 84.26 164.39 82.8094 164.39 81.02C164.39 79.2306 162.931 77.78 161.13 77.78C159.33 77.78 157.87 79.2306 157.87 81.02C157.87 82.8094 159.33 84.26 161.13 84.26Z" fill="white"/>
<path d="M118.97 146.2H1.75V245.03H118.97V146.2Z" fill="white" stroke="#0055DC" stroke-width="1.5" stroke-miterlimit="10"/>
<path d="M118.97 146.2H1.75V161.47H118.97V146.2Z" fill="#0055DC" stroke="#0055DC" stroke-width="1.05" stroke-miterlimit="10"/>
<path d="M8.7501 156.48C10.2137 156.48 11.4001 155.293 11.4001 153.83C11.4001 152.366 10.2137 151.18 8.7501 151.18C7.28654 151.18 6.1001 152.366 6.1001 153.83C6.1001 155.293 7.28654 156.48 8.7501 156.48Z" fill="white"/>
<path d="M17.3299 156.48C18.7935 156.48 19.9799 155.293 19.9799 153.83C19.9799 152.366 18.7935 151.18 17.3299 151.18C15.8664 151.18 14.6799 152.366 14.6799 153.83C14.6799 155.293 15.8664 156.48 17.3299 156.48Z" fill="white"/>
<path d="M25.9 156.48C27.3636 156.48 28.55 155.293 28.55 153.83C28.55 152.366 27.3636 151.18 25.9 151.18C24.4364 151.18 23.25 152.366 23.25 153.83C23.25 155.293 24.4364 156.48 25.9 156.48Z" fill="white"/>
<path d="M487.02 149.52H408.24V193.25H417.08V209.87L431.78 193.25H487.02V149.52Z" fill="white" stroke="#0055DC" stroke-width="1.5" stroke-linecap="round" stroke-linejoin="round"/>
<path d="M430.8 175.04C432.567 175.04 434 173.607 434 171.84C434 170.073 432.567 168.64 430.8 168.64C429.033 168.64 427.6 170.073 427.6 171.84C427.6 173.607 429.033 175.04 430.8 175.04Z" fill="#FF7A00"/>
<path d="M446.63 175.04C448.397 175.04 449.83 173.607 449.83 171.84C449.83 170.073 448.397 168.64 446.63 168.64C444.863 168.64 443.43 170.073 443.43 171.84C443.43 173.607 444.863 175.04 446.63 175.04Z" fill="#FF7A00"/>
<path d="M462.46 175.04C464.227 175.04 465.66 173.607 465.66 171.84C465.66 170.073 464.227 168.64 462.46 168.64C460.692 168.64 459.26 170.073 459.26 171.84C459.26 173.607 460.692 175.04 462.46 175.04Z" fill="#FF7A00"/>
<path d="M43.8701 217.62V209.78C43.8701 205.3 42.3901 203.7 37.8701 203.7V200C42.4101 200 43.8701 198.41 43.8701 193.92V186.1C43.8701 179.19 46.3901 176 53.3201 176V179.07C48.8001 179.07 47.2201 181.23 47.2201 186.07V195C47.2201 198.46 46.2201 200.74 42.4701 201.67V202C46.2301 202.93 47.2201 205.22 47.2201 208.67V217.58C47.2201 222.45 48.8001 224.58 53.3201 224.58V227.66C46.3901 227.73 43.8701 224.53 43.8701 217.62Z" fill="#F6821F"/>
<path d="M76.8499 186.1V193.94C76.8499 198.43 78.3199 200.02 82.8499 200.02V203.7C78.2999 203.7 76.8499 205.3 76.8499 209.78V217.62C76.8499 224.53 74.3199 227.73 67.3899 227.73V224.65C71.9199 224.65 73.4899 222.49 73.4899 217.65V208.74C73.4899 205.29 74.4899 203 78.2399 202.07V201.71C74.4799 200.78 73.4899 198.5 73.4899 195.04V186.1C73.4899 181.23 71.9199 179.1 67.3899 179.1V176C74.3199 176 76.8499 179.19 76.8499 186.1Z" fill="#F6821F"/>
<path d="M236.61 106.08H148.69V187.05H236.61V106.08Z" fill="#E2F5FA"/>
<path d="M378.51 187.05H252.68V261.63H378.51V187.05Z" fill="#E2F5FA"/>
<path d="M378.51 111.84H252.68V118.27H378.51V111.84Z" fill="#E2F5FA"/>
<path d="M378.51 125.25H252.68V131.68H378.51V125.25Z" fill="#E2F5FA"/>
<path d="M378.51 138.65H252.68V145.08H378.51V138.65Z" fill="#E2F5FA"/>
<path d="M378.51 152.05H252.68V158.48H378.51V152.05Z" fill="#E2F5FA"/>
<path d="M357.41 165.45H252.68V171.88H357.41V165.45Z" fill="#E2F5FA"/>
<path d="M236.61 201.58H148.69V208.01H236.61V201.58Z" fill="#E2F5FA"/>
<path d="M236.61 214.98H148.69V221.41H236.61V214.98Z" fill="#E2F5FA"/>
<path d="M236.61 228.39H148.69V234.82H236.61V228.39Z" fill="#E2F5FA"/>
<path d="M236.61 241.79H148.69V248.22H236.61V241.79Z" fill="#E2F5FA"/>
<path d="M217.4 255.19H148.69V261.62H217.4V255.19Z" fill="#E2F5FA"/>
<path d="M333.64 156.46H193.56C191.793 156.46 190.36 157.893 190.36 159.66V204.17C190.36 205.937 191.793 207.37 193.56 207.37H333.64C335.407 207.37 336.84 205.937 336.84 204.17V159.66C336.84 157.893 335.407 156.46 333.64 156.46Z" fill="white" stroke="#0055DC" stroke-width="1.25" stroke-miterlimit="10"/>
<path d="M229.78 183.7L223.26 187.7L222.05 185.57L228.78 181.93L222.05 178.29L223.26 176.16L229.78 180.16L229.6 172.53H232.05L231.87 180.16L238.39 176.16L239.6 178.29L232.87 181.93L239.6 185.57L238.39 187.7L231.87 183.7L232.05 191.33H229.6L229.78 183.7Z" fill="#F6821F"/>
<path d="M251.63 183.7L245.11 187.7L243.9 185.57L250.63 181.93L243.9 178.29L245.11 176.16L251.63 180.16L251.45 172.53H253.9L253.72 180.16L260.24 176.16L261.45 178.29L254.72 181.93L261.45 185.57L260.24 187.7L253.72 183.7L253.9 191.33H251.45L251.63 183.7Z" fill="#F6821F"/>
<path d="M273.48 183.7L266.96 187.7L265.75 185.57L272.48 181.93L265.75 178.29L266.96 176.16L273.48 180.16L273.3 172.53H275.75L275.57 180.16L282.09 176.16L283.3 178.29L276.57 181.93L283.3 185.57L282.09 187.7L275.57 183.7L275.75 191.33H273.3L273.48 183.7Z" fill="#F6821F"/>
<path d="M295.33 183.7L288.81 187.7L287.6 185.57L294.33 181.93L287.6 178.29L288.81 176.16L295.33 180.16L295.15 172.53H297.6L297.42 180.16L303.94 176.16L305.15 178.29L298.42 181.93L305.15 185.57L303.94 187.7L297.42 183.7L297.6 191.33H295.15L295.33 183.7Z" fill="#F6821F"/>
</svg>
