<svg width="583" height="253" viewBox="0 0 583 253" fill="none" xmlns="http://www.w3.org/2000/svg">
<path d="M546.33 148C543.861 148 541.398 148.251 538.98 148.75C538.575 133.836 532.882 119.552 522.916 108.449C512.951 97.3456 499.363 90.1469 484.579 88.1385C469.796 86.1301 454.78 89.4428 442.213 97.4849C429.647 105.527 420.349 117.774 415.98 132.04C409.923 131.026 403.722 131.279 397.768 132.781C391.813 134.284 386.235 137.004 381.384 140.77C376.533 144.536 372.515 149.266 369.584 154.662C366.652 160.058 364.871 166.004 364.352 172.123C363.833 178.242 364.587 184.402 366.568 190.215C368.548 196.028 371.712 201.368 375.859 205.897C380.006 210.426 385.046 214.047 390.663 216.531C396.279 219.015 402.349 220.309 408.49 220.33H546.33C555.923 220.33 565.123 216.519 571.906 209.736C578.689 202.953 582.5 193.753 582.5 184.16C582.5 174.567 578.689 165.367 571.906 158.584C565.123 151.801 555.923 147.99 546.33 147.99V148Z" fill="#003682"/>
<path d="M77.9399 93.47C77.9399 49.15 125.33 1.46997 184.36 1.46997C258.15 1.46997 323.75 48.11 323.75 166.47C323.75 233.47 365.64 232.26 380.44 196.87C388.17 178.38 416.01 130.24 462.77 130.24C509.02 130.24 546.33 157.45 546.33 220.24" stroke="#FF6633" stroke-miterlimit="10"/>
<path d="M84.2002 93.4699C84.8302 50.3599 131.6 5.66986 188.45 7.46986C224.85 8.61986 259.15 21.1699 283.51 49.6199C306.38 76.3299 321.42 115.73 322.42 170.34C323.42 234.21 363.42 233.21 379.08 200.18C387.4 182.63 415.17 137.05 459.78 135.84C462.28 135.773 464.75 135.773 467.19 135.84C507.89 137.26 541.36 162.76 542.04 220.26" stroke="#FF6A34" stroke-miterlimit="10"/>
<path d="M90.46 93.4699C91.71 51.5699 137.83 9.81994 192.55 13.4699C227.13 15.7599 259.76 28.3999 282.64 56.8299C304.28 83.6699 319.27 122 321.1 174.15C323.23 234.9 361.29 234.08 377.73 203.43C386.66 186.79 414.33 143.79 456.79 141.38C459.18 141.24 461.54 141.15 463.86 141.14C502.66 141.05 536.38 164.48 537.75 220.19" stroke="#FF6E35" stroke-miterlimit="10"/>
<path d="M96.7202 93.4699C98.6002 52.7799 144 13.9999 196.64 19.3999C229.4 22.7899 260.36 35.5599 281.77 63.9999C302.18 91.0699 317.03 128.41 319.77 178C322.96 235.62 359.22 235 376.37 206.72C385.94 190.96 413.49 150.56 453.79 146.95C456.07 146.75 458.31 146.57 460.52 146.47C497.42 144.87 531.39 166.24 533.44 220.15" stroke="#FE7335" stroke-miterlimit="10"/>
<path d="M103 93.4698C105.51 53.9998 150.18 18.0498 200.75 25.3699C231.66 29.8398 260.98 42.7698 280.92 71.1199C300.09 98.3799 314.8 134.66 318.47 181.78C322.72 236.26 357.28 235.78 375.05 209.93C385.3 195.02 412.7 157.24 450.83 152.45C453 152.18 455.13 151.91 457.23 151.72C492.23 148.61 526.45 167.91 529.18 220.03" stroke="#FE7736" stroke-miterlimit="10"/>
<path d="M109.24 93.47C112.38 55.21 156.24 22.11 204.83 31.34C233.83 36.86 261.55 49.98 280.03 78.28C297.96 105.75 312.53 140.97 317.13 185.59C322.42 236.94 355.39 236.59 373.67 213.18C384.67 199.1 411.86 163.95 447.82 157.99C449.88 157.65 451.9 157.29 453.88 156.99C486.97 152.38 521.45 169.6 524.88 219.93" stroke="#FE7B37" stroke-miterlimit="10"/>
<path d="M115.5 93.4699C119.26 56.4699 162.34 26.1099 208.92 37.2999C236.09 43.8299 262.13 57.2099 279.15 85.4499C298.504 117.174 310.992 152.602 315.81 189.45C322.14 237.66 353.63 237.51 372.32 216.45C384.1 203.21 411.05 170.68 444.83 163.56C446.78 163.15 448.68 162.7 450.55 162.33C481.74 156.21 516.48 171.33 520.55 219.9" stroke="#FE7F38" stroke-miterlimit="10"/>
<path d="M121.76 93.4699C126.15 57.6399 168.37 30.0599 213.01 43.2699C238.29 50.7499 262.71 64.4499 278.28 92.6099C293.72 120.52 308.01 153.61 314.49 193.22C321.84 238.28 351.99 238.36 370.97 219.67C383.59 207.25 410.25 177.33 441.84 169.07C443.69 168.58 445.47 168.07 447.22 167.59C476.5 159.96 511.5 173.05 516.28 219.8" stroke="#FD8338" stroke-miterlimit="10"/>
<path d="M128 93.4699C133 58.8499 174.36 33.9299 217.09 49.2399C240.46 57.6099 263.25 71.6999 277.39 99.7799C291.53 127.86 305.71 159.85 313.14 197.03C321.52 238.94 350.44 239.32 369.6 222.92C383.12 211.34 409.44 183.99 438.83 174.6C440.57 174.05 442.24 173.43 443.83 172.88C471.2 163.74 506.45 174.76 511.92 219.72" stroke="#FD8739" stroke-miterlimit="10"/>
<path d="M134.28 93.4701C139.93 60.0601 180.38 37.7001 221.2 55.2001C242.68 64.4101 263.82 78.9501 276.54 106.94C289.44 135.32 303.45 166.14 311.84 200.84C321.21 239.6 349.03 240.36 368.26 226.17C382.76 215.48 408.67 190.63 435.86 180.17C437.49 179.54 439.05 178.84 440.57 178.17C466.04 167.52 501.57 176.47 507.69 219.64" stroke="#FD8C3A" stroke-miterlimit="10"/>
<path d="M140.54 93.4698C146.81 61.2698 186.39 41.3598 225.29 61.1698C244.89 71.1698 264.36 86.1698 275.67 114.11C287.27 142.73 301.14 172.42 310.52 204.66C320.87 240.25 347.69 241.49 366.91 229.42C382.43 219.68 407.91 197.23 432.91 185.68C434.44 184.98 435.91 184.19 437.28 183.46C460.85 171.31 496.61 178.18 503.44 219.56" stroke="#FD903B" stroke-miterlimit="10"/>
<path d="M146.8 93.47C153.7 62.47 192.45 44.9 229.39 67.14C247.12 77.82 264.88 93.48 274.8 121.27C285.1 150.15 298.8 178.71 309.19 208.47C320.5 240.91 346.4 242.72 365.56 232.67C382.15 223.96 407.07 203.8 429.88 191.22C431.3 190.44 432.62 189.57 433.88 188.75C455.54 175.09 491.55 179.9 499.07 219.48" stroke="#FC943B" stroke-miterlimit="10"/>
<path d="M153.06 93.47C160.59 63.7 198.6 48.3 233.48 73.1C249.4 84.42 265.39 100.76 273.92 128.44C282.92 157.57 296.47 184.99 307.87 212.28C320.11 241.57 345.14 244.06 364.21 235.91C381.9 228.36 406.21 210.34 426.89 196.76C428.2 195.9 429.41 194.95 430.59 194.04C450.35 178.87 486.59 181.61 494.81 219.4" stroke="#FC983C" stroke-miterlimit="10"/>
<path d="M159.32 93.4699C167.48 64.91 204.87 51.5799 237.57 79.0699C251.73 90.9699 265.88 108.07 273.05 135.6C280.7 164.99 294.05 191.29 306.55 216.1C319.68 242.24 343.87 245.51 362.86 239.16C381.67 232.88 405.4 216.85 423.86 202.29C425.06 201.35 426.15 200.29 427.22 199.29C445.08 182.61 481.6 183.29 490.48 219.29" stroke="#FC9C3D" stroke-miterlimit="10"/>
<path d="M165.58 93.4699C174.36 66.1299 211.33 54.7299 241.66 85.0399C254.13 97.4899 266.36 115.3 272.18 142.77C278.47 172.42 291.67 197.61 305.18 219.91C319.18 242.91 342.52 247.05 361.46 242.41C381.39 237.53 404.46 223.33 420.88 207.83C421.96 206.83 422.94 205.71 423.88 204.62C439.83 186.43 476.6 185.03 486.16 219.25" stroke="#FCA03E" stroke-miterlimit="10"/>
<path d="M171.84 93.47C181.25 67.34 218 57.79 245.76 91C256.61 104 266.82 122.56 271.31 149.92C276.22 179.83 289.22 203.92 303.9 223.71C318.71 243.65 341.19 248.66 360.15 245.65C381.15 242.31 403.59 229.79 417.93 213.36C418.93 212.25 419.77 211.08 420.61 209.9C434.66 190.2 471.69 186.74 481.93 219.16" stroke="#FBA53E" stroke-miterlimit="10"/>
<path d="M178.1 93.4701C188.1 68.5501 224.96 60.8201 249.85 96.9701C259.17 110.51 267.26 129.83 270.44 157.1C273.291 183.428 284.563 208.132 302.58 227.54C318.18 244.44 339.73 250.36 358.8 248.91C380.8 247.23 402.61 236.27 414.94 218.91C415.78 217.71 416.55 216.47 417.28 215.2C429.43 194 466.71 188.46 477.64 219.09" stroke="#FBA93F" stroke-miterlimit="10"/>
<path d="M184.36 93.47C198.88 61.19 262.5 61.94 269.57 164.26C276.26 261.19 389.44 274.84 413.95 220.49C424.2 197.78 461.73 190.17 473.34 219.01" stroke="#FBAD40" stroke-miterlimit="10"/>
<path d="M418.27 171.26H413.96V193.98H418.27V171.26Z" fill="#0055DC"/>
<path d="M530.73 171.26H526.42V193.98H530.73V171.26Z" fill="#0055DC"/>
<path d="M526.42 167.23H418.27V198.01H526.42V167.23Z" fill="#C5EBF5" stroke="#0055DC" stroke-miterlimit="10"/>
<path d="M521.75 193.67V171.57H422.94V193.67H521.75Z" fill="white"/>
<path d="M424.2 198.03V202.34H520.54V198.03H424.2Z" fill="white" stroke="#0055DC" stroke-miterlimit="10"/>
<path d="M430.96 177.81H428.57V180.2H430.96V177.81Z" fill="#0055DC"/>
<path d="M430.96 185.02H428.57V187.41H430.96V185.02Z" fill="#0055DC"/>
<path d="M434.24 181.22H431.85V183.61H434.24V181.22Z" fill="#0055DC"/>
<path d="M437.15 177.81H434.76V180.2H437.15V177.81Z" fill="#0055DC"/>
<path d="M437.15 185.02H434.76V187.41H437.15V185.02Z" fill="#0055DC"/>
<path d="M440.25 181.22H437.86V183.61H440.25V181.22Z" fill="#0055DC"/>
<path d="M443.91 177.81H441.52V180.2H443.91V177.81Z" fill="#0055DC"/>
<path d="M443.91 185.02H441.52V187.41H443.91V185.02Z" fill="#0055DC"/>
<path d="M447.01 181.22H444.62V183.61H447.01V181.22Z" fill="#0055DC"/>
<path d="M450.77 177.81H448.38V180.2H450.77V177.81Z" fill="#0055DC"/>
<path d="M450.77 185.02H448.38V187.41H450.77V185.02Z" fill="#0055DC"/>
<path d="M453.69 181.22H451.3V183.61H453.69V181.22Z" fill="#0055DC"/>
<path d="M456.97 177.81H454.58V180.2H456.97V177.81Z" fill="#0055DC"/>
<path d="M456.97 185.02H454.58V187.41H456.97V185.02Z" fill="#0055DC"/>
<path d="M459.7 181.22H457.31V183.61H459.7V181.22Z" fill="#0055DC"/>
<path d="M463.16 177.81H460.77V180.2H463.16V177.81Z" fill="#0055DC"/>
<path d="M463.16 185.02H460.77V187.41H463.16V185.02Z" fill="#0055DC"/>
<path d="M465.71 181.22H463.32V183.61H465.71V181.22Z" fill="#0055DC"/>
<path d="M513.9 185.59C515.54 185.59 516.87 184.26 516.87 182.62C516.87 180.98 515.54 179.65 513.9 179.65C512.26 179.65 510.93 180.98 510.93 182.62C510.93 184.26 512.26 185.59 513.9 185.59Z" fill="#0055DC"/>
<path d="M505.36 182.62H473.88" stroke="#0055DC" stroke-width="0.89" stroke-miterlimit="10"/>
<path d="M418.27 206.35H413.96V229.07H418.27V206.35Z" fill="#0055DC"/>
<path d="M530.73 206.35H526.42V229.07H530.73V206.35Z" fill="#0055DC"/>
<path d="M424.2 233.12V237.43H520.54V233.12H424.2Z" fill="white" stroke="#0055DC" stroke-miterlimit="10"/>
<path d="M526.42 202.32H418.27V233.1H526.42V202.32Z" fill="#C5EBF5" stroke="#0055DC" stroke-miterlimit="10"/>
<path d="M521.75 228.77V206.67H422.94V228.77H521.75Z" fill="white"/>
<path d="M430.96 212.9H428.57V215.29H430.96V212.9Z" fill="#0055DC"/>
<path d="M430.96 220.11H428.57V222.5H430.96V220.11Z" fill="#0055DC"/>
<path d="M434.24 216.31H431.85V218.7H434.24V216.31Z" fill="#0055DC"/>
<path d="M437.15 212.9H434.76V215.29H437.15V212.9Z" fill="#0055DC"/>
<path d="M437.15 220.11H434.76V222.5H437.15V220.11Z" fill="#0055DC"/>
<path d="M440.25 216.31H437.86V218.7H440.25V216.31Z" fill="#0055DC"/>
<path d="M443.91 212.9H441.52V215.29H443.91V212.9Z" fill="#0055DC"/>
<path d="M443.91 220.11H441.52V222.5H443.91V220.11Z" fill="#0055DC"/>
<path d="M447.01 216.31H444.62V218.7H447.01V216.31Z" fill="#0055DC"/>
<path d="M450.77 212.9H448.38V215.29H450.77V212.9Z" fill="#0055DC"/>
<path d="M450.77 220.11H448.38V222.5H450.77V220.11Z" fill="#0055DC"/>
<path d="M453.69 216.31H451.3V218.7H453.69V216.31Z" fill="#0055DC"/>
<path d="M456.97 212.9H454.58V215.29H456.97V212.9Z" fill="#0055DC"/>
<path d="M456.97 220.11H454.58V222.5H456.97V220.11Z" fill="#0055DC"/>
<path d="M459.7 216.31H457.31V218.7H459.7V216.31Z" fill="#0055DC"/>
<path d="M463.16 212.9H460.77V215.29H463.16V212.9Z" fill="#0055DC"/>
<path d="M463.16 220.11H460.77V222.5H463.16V220.11Z" fill="#0055DC"/>
<path d="M465.71 216.31H463.32V218.7H465.71V216.31Z" fill="#0055DC"/>
<path d="M513.9 220.68C515.54 220.68 516.87 219.35 516.87 217.71C516.87 216.07 515.54 214.74 513.9 214.74C512.26 214.74 510.93 216.07 510.93 217.71C510.93 219.35 512.26 220.68 513.9 220.68Z" fill="#0055DC"/>
<path d="M505.36 217.71H473.88" stroke="#0055DC" stroke-width="0.89" stroke-miterlimit="10"/>
<path fill-rule="evenodd" clip-rule="evenodd" d="M227.79 93.47H38.0002C35.4714 93.4778 33.0478 94.4831 31.2559 96.2675C29.464 98.0519 28.4486 100.471 28.4302 103V227.79H237.35V103C237.337 100.471 236.325 98.0505 234.534 96.2652C232.743 94.48 230.319 93.4752 227.79 93.47V93.47Z" fill="#C5EBF5" stroke="#0055DC" stroke-miterlimit="10"/>
<path d="M132.89 102.8C133.818 102.8 134.57 102.048 134.57 101.12C134.57 100.192 133.818 99.4399 132.89 99.4399C131.962 99.4399 131.21 100.192 131.21 101.12C131.21 102.048 131.962 102.8 132.89 102.8Z" fill="#0055DC"/>
<path fill-rule="evenodd" clip-rule="evenodd" d="M245.7 237.42H20.12C8.4 237.42 0.5 235.62 0.5 233.91V228.71C0.530237 228.435 0.668073 228.182 0.883477 228.008C1.09888 227.834 1.3744 227.752 1.65 227.78H264.18C264.456 227.752 264.731 227.834 264.947 228.008C265.162 228.182 265.3 228.435 265.33 228.71V234.11C265.32 235.47 259.21 237.42 245.7 237.42Z" fill="white"/>
<path fill-rule="evenodd" clip-rule="evenodd" d="M245.7 237.42H20.12C8.4 237.42 0.5 235.62 0.5 233.91V228.71C0.530237 228.435 0.668073 228.182 0.883477 228.008C1.09888 227.834 1.3744 227.752 1.65 227.78H264.18C264.456 227.752 264.731 227.834 264.947 228.008C265.162 228.182 265.3 228.435 265.33 228.71V234.11C265.32 235.47 259.21 237.42 245.7 237.42Z" stroke="#0055DC" stroke-miterlimit="10"/>
<path d="M265.33 228.71C265.3 228.435 265.162 228.182 264.947 228.008C264.731 227.834 264.456 227.752 264.18 227.78H1.65C1.3744 227.752 1.09888 227.834 0.883477 228.008C0.668073 228.182 0.530237 228.435 0.5 228.71V233.71H265.33V228.71Z" fill="#C5EBF5"/>
<path fill-rule="evenodd" clip-rule="evenodd" d="M245.7 237.42H20.12C8.4 237.42 0.5 235.62 0.5 233.91V228.71C0.530237 228.435 0.668073 228.182 0.883477 228.008C1.09888 227.834 1.3744 227.752 1.65 227.78H264.18C264.456 227.752 264.731 227.834 264.947 228.008C265.162 228.182 265.3 228.435 265.33 228.71V234.11C265.32 235.47 259.21 237.42 245.7 237.42Z" stroke="#0055DC" stroke-miterlimit="10"/>
<path d="M228.58 108.4H36.8501V220.13H228.58V108.4Z" fill="white"/>
<path fill-rule="evenodd" clip-rule="evenodd" d="M161.59 228.16V229.34C161.59 230.19 159.93 230.44 158.68 230.44H107.19C105.87 230.44 104.19 230.19 104.19 229.34V228.16" fill="#0055DC"/>
<path d="M228.24 108.58H37.1401V116.5H228.24V108.58Z" fill="#0055DC" stroke="#0055DC" stroke-width="0.75" stroke-miterlimit="10"/>
<path d="M43.5298 114.01C44.3362 114.01 44.9898 113.356 44.9898 112.55C44.9898 111.744 44.3362 111.09 43.5298 111.09C42.7235 111.09 42.0698 111.744 42.0698 112.55C42.0698 113.356 42.7235 114.01 43.5298 114.01Z" fill="white"/>
<path d="M48.2398 114.01C49.0461 114.01 49.6998 113.356 49.6998 112.55C49.6998 111.744 49.0461 111.09 48.2398 111.09C47.4335 111.09 46.7798 111.744 46.7798 112.55C46.7798 113.356 47.4335 114.01 48.2398 114.01Z" fill="white"/>
<path d="M52.96 114.01C53.7663 114.01 54.42 113.356 54.42 112.55C54.42 111.744 53.7663 111.09 52.96 111.09C52.1537 111.09 51.5 111.744 51.5 112.55C51.5 113.356 52.1537 114.01 52.96 114.01Z" fill="white"/>
<path d="M130.9 186.04C146.165 186.04 158.54 173.665 158.54 158.4C158.54 143.135 146.165 130.76 130.9 130.76C115.635 130.76 103.26 143.135 103.26 158.4C103.26 173.665 115.635 186.04 130.9 186.04Z" fill="#E2F5FA"/>
<path d="M139.91 153.41C139.572 152.067 139.338 150.699 139.21 149.32C134.11 149.78 126.33 146.94 124.27 145.32" stroke="#0055DC" stroke-width="0.41" stroke-miterlimit="10"/>
<path d="M142.56 149.26C143.14 150.16 146.11 150.74 146.11 153.41C146.11 156.08 143.85 157.41 143.53 159.55C143.21 161.69 143.92 162.92 147.53 164.94C152.69 167.82 152.04 175.74 144.69 177.36C144.69 177.36 136.74 174.2 135.13 171.7V164.34L124.82 164.22V172.05C122.44 174.62 115.34 177.88 112.57 179.48C111.986 178.873 111.538 178.149 111.256 177.356C110.973 176.563 110.862 175.719 110.93 174.88C111.03 171.88 118.66 169.54 118.66 167.88C118.66 166.22 114.88 162.38 114.88 159.59C114.88 156.8 119.73 154.37 119.73 148.92C119.73 139.62 129.16 139.82 130.03 139.82C140.28 139.78 141.6 147.77 142.56 149.26Z" fill="#FF6633" stroke="#FF6633" stroke-width="0.41" stroke-miterlimit="10"/>
<path d="M120.57 175.14C122.116 174.296 123.548 173.258 124.83 172.05V164.22L135.13 164.34V171.7C135.61 172.62 137.38 173.7 139.75 175.07C136.693 176.734 133.279 177.632 129.8 177.69C126.546 177.715 123.349 176.832 120.57 175.14V175.14Z" fill="white" stroke="#003682" stroke-width="0.5" stroke-miterlimit="10"/>
<mask id="mask0" mask-type="alpha" maskUnits="userSpaceOnUse" x="103" y="130" width="56" height="57">
<path d="M130.9 186.04C146.165 186.04 158.54 173.665 158.54 158.4C158.54 143.135 146.165 130.76 130.9 130.76C115.635 130.76 103.26 143.135 103.26 158.4C103.26 173.665 115.635 186.04 130.9 186.04Z" fill="#E2F5FA"/>
</mask>
<g mask="url(#mask0)">
<path d="M139.81 175.13C136.736 176.798 133.306 177.704 129.81 177.77C126.546 177.791 123.34 176.905 120.55 175.21V175.21C114.25 178.76 105.28 181.9 105.28 190.31H154.82C154.81 182.05 139.81 175.13 139.81 175.13Z" fill="#003682" stroke="#003682" stroke-width="0.41" stroke-linecap="round" stroke-linejoin="round"/>
</g>
<path d="M140.22 150C140.081 153.943 139.167 157.82 137.53 161.41C136.25 163.85 132.96 166.56 129.98 166.56C127 166.56 124.04 163.85 122.42 161.41C120.42 158.31 119.73 152.67 119.73 150C119.687 148.628 119.92 147.261 120.416 145.98C120.912 144.7 121.659 143.532 122.615 142.546C123.571 141.56 124.714 140.776 125.979 140.241C127.243 139.706 128.602 139.43 129.975 139.43C131.348 139.43 132.707 139.706 133.971 140.241C135.236 140.776 136.38 141.56 137.335 142.546C138.291 143.532 139.039 144.7 139.534 145.98C140.03 147.261 140.263 148.628 140.22 150Z" fill="white" stroke="#003682" stroke-width="0.5" stroke-miterlimit="10"/>
<path d="M139.91 153.41C139.572 152.067 139.338 150.699 139.21 149.32C134.11 149.78 126.33 146.94 124.27 145.32C124.27 145.32 122.36 152.81 120.09 154.32C119.864 152.898 119.744 151.46 119.73 150.02C119.687 148.648 119.92 147.281 120.416 146C120.912 144.72 121.659 143.552 122.615 142.566C123.571 141.58 124.714 140.796 125.979 140.261C127.243 139.726 128.602 139.45 129.975 139.45C131.348 139.45 132.707 139.726 133.971 140.261C135.236 140.796 136.38 141.58 137.335 142.566C138.291 143.552 139.039 144.72 139.534 146C140.03 147.281 140.263 148.648 140.22 150.02C140.202 151.153 140.099 152.283 139.91 153.4V153.41Z" fill="#FF6633" stroke="#FF6633" stroke-width="0.52" stroke-miterlimit="10"/>
<path d="M139.76 154.33C139.815 154.109 139.916 153.902 140.056 153.723C140.196 153.543 140.372 153.395 140.572 153.288C140.773 153.18 140.994 153.116 141.221 153.099C141.448 153.083 141.676 153.113 141.89 153.19C143.18 153.58 142.45 158.26 138.89 158.09C139.247 156.853 139.538 155.598 139.76 154.33V154.33Z" fill="white" stroke="#003682" stroke-width="0.5" stroke-miterlimit="10"/>
<path d="M120.09 154.33C120.028 154.106 119.92 153.897 119.774 153.716C119.627 153.536 119.445 153.387 119.239 153.28C119.032 153.173 118.806 153.11 118.574 153.094C118.341 153.079 118.109 153.111 117.89 153.19C116.76 153.65 117.32 158.26 120.89 158.09C120.541 156.856 120.274 155.6 120.09 154.33V154.33Z" fill="white" stroke="#003682" stroke-width="0.5" stroke-miterlimit="10"/>
<path d="M137.31 173.64C134.918 174.59 132.373 175.095 129.8 175.13C127.398 175.122 125.02 174.647 122.8 173.73" stroke="#003682" stroke-width="0.5" stroke-miterlimit="10"/>
<path d="M130.9 186.04C146.165 186.04 158.54 173.665 158.54 158.4C158.54 143.135 146.165 130.76 130.9 130.76C115.635 130.76 103.26 143.135 103.26 158.4C103.26 173.665 115.635 186.04 130.9 186.04Z" stroke="#0055DC" stroke-miterlimit="10"/>
<path d="M154.7 191.47H107.11C106.508 191.47 106.02 191.958 106.02 192.56V207.68C106.02 208.282 106.508 208.77 107.11 208.77H154.7C155.302 208.77 155.79 208.282 155.79 207.68V192.56C155.79 191.958 155.302 191.47 154.7 191.47Z" fill="white" stroke="#0055DC" stroke-miterlimit="10"/>
<path d="M119.41 200.73L117.2 202.08L116.79 201.36L119.07 200.12L116.79 198.88L117.2 198.16L119.41 199.52L119.35 196.92H120.18L120.12 199.52L122.34 198.16L122.75 198.88L120.46 200.12L122.75 201.36L122.34 202.08L120.12 200.73L120.18 203.32H119.35L119.41 200.73Z" fill="#F6821F"/>
<path d="M126.84 200.73L124.62 202.08L124.21 201.36L126.5 200.12L124.21 198.88L124.62 198.16L126.84 199.52L126.77 196.92H127.61L127.55 199.52L129.76 198.16L130.17 198.88L127.88 200.12L130.17 201.36L129.76 202.08L127.55 200.73L127.61 203.32H126.77L126.84 200.73Z" fill="#F6821F"/>
<path d="M134.26 200.73L132 202.08L131.59 201.36L133.88 200.12L131.59 198.88L132 198.16L134.22 199.52L134.16 196.92H135L134.94 199.52L137.15 198.16L137.57 198.88L135.28 200.12L137.57 201.36L137.15 202.08L135 200.73L135.06 203.32H134.23L134.26 200.73Z" fill="#F6821F"/>
<path d="M141.68 200.73L139.47 202.08L139.06 201.36L141.34 200.12L139.06 198.88L139.47 198.16L141.68 199.52L141.62 196.92H142.45L142.39 199.52L144.61 198.16L145.02 198.88L142.73 200.12L145.02 201.36L144.61 202.08L142.39 200.73L142.45 203.32H141.62L141.68 200.73Z" fill="#F6821F"/>
</svg>
